<?xml version="1.0" encoding="UTF-8"?>
<svg id="Layer_1" data-name="Layer 1" xmlns="http://www.w3.org/2000/svg" viewBox="0 0 2146.44 425.77">
  <defs>
    <style>
      .cls-1, .cls-2 {
        stroke-width: 0px;
      }

      .cls-2 {
        fill: #3d3fff;
      }
    </style>
  </defs>
  <g>
    <g>
      <path class="cls-2" d="m123.94,104.73l88.95-51.35c-3.42-5.92-6.84-11.84-10.26-17.77l-99.2,57.28v154.92s20.51,11.85,20.51,11.85V104.73Z"/>
      <polygon class="cls-2" points="285.66 285.86 165.68 355.23 93.12 313.29 82.86 331.06 165.68 378.92 285.63 309.66 285.66 285.86"/>
      <polygon class="cls-2" points="305.82 166.17 305.82 321.65 216.82 373.03 227.04 390.82 326.34 333.49 326.32 177.97 305.82 166.17"/>
      <polygon class="cls-2" points="264.07 94.85 144.38 163.89 144.38 272.12 164.89 283.86 164.89 176.13 264.07 118.54 346.85 166.17 346.85 285.86 367.56 285.86 367.56 154.78 264.07 94.85"/>
      <polygon class="cls-2" points="144.38 140.25 264.09 71.13 336.81 113.2 347.04 95.42 264.09 47.45 144.38 116.62 144.38 140.25"/>
      <path class="cls-2" d="m285.31,262.15v-107.72l-20.51-11.84v107.72s-99.35,57.36-99.35,57.36l-82.59-47.88-.06-119.53h-20.46v131.37l103.1,59.72,119.86-69.21Z"/>
      <polygon class="cls-2" points="226.05 249.07 244.26 238.45 244.39 153.29 226.05 163.88 226.05 213.31 203.74 176.92 185.4 187.51 185.4 272.48 203.74 261.91 203.74 211.82 226.05 249.07"/>
    </g>
    <g>
      <path class="cls-1" d="m555.83,118.89h59.33v6.83c-16.28,1.27-25.03,8.32-25.03,27.54v144.97h-4.52l-110.4-155.36v118.46c0,19.18,8.52,26.28,25.03,27.54v6.83h-59.33v-6.83c16.51-1.27,25.02-8.32,25.02-27.54v-113.16c0-15.65-8.25-21.21-24.79-22.48v-6.83h48.34l91.39,129.55v-95.18c0-19.18-8.25-26.28-25.03-27.54v-6.83.03Z"/>
      <path class="cls-1" d="m716.59,258.03l5.25,2.76c-7.53,22.48-26.54,37.37-52.33,37.37-33.31,0-54.34-26.28-54.34-61.38,0-36.87,22.02-64.64,55.33-64.64s51.34,24.51,51.34,57.58h-86.14c.26,32.57,16.01,47.99,41.57,47.99,18.79,0,31.03-8.83,39.32-19.72v.03Zm-80.62-36.37h43.05c11.26,0,17.27-4.03,17.27-14.39,0-14.15-10-27.01-28.03-27.01-20.27,0-30.54,18.45-32.29,41.43v-.03Z"/>
      <path class="cls-1" d="m738.12,235.55c0-38.4,24.53-63.41,61.61-63.41,19.78,0,41.8,9.36,41.8,27.01,0,7.33-5.25,12.39-12.51,12.39-22.55,0-7.76-30.04-38.56-30.04-22.02,0-31.79,23.48-31.79,46.46,0,28.81,13.5,49.76,41.83,49.76,17.76,0,29.55-8.83,37.31-19.72l5.25,2.76c-7.26,22.48-25.55,37.37-50.58,37.37-33.31,0-54.34-26.78-54.34-62.64v.07Z"/>
      <path class="cls-1" d="m929.8,277.24c-4.26,7.06-12.51,19.72-31.3,19.72-17.27,0-26.28-10.59-26.28-32.57v-78.03h-17.53v-7.06c16.01-5.3,26.55-18.95,31.04-37.63h8.02v33.07h30.8v11.62h-30.8v75c0,13.62,6.01,18.95,16.01,18.95,6.5,0,12.78-3.8,15.52-7.06l4.52,4.03v-.03Z"/>
      <path class="cls-1" d="m1062.94,275.21c-4.52,12.62-11.75,22.98-27.54,22.98-12.78,0-20.77-10.09-21.53-24.24-7,14.89-21.3,24.24-39.82,24.24-17.53,0-30.8-8.59-30.8-26.51,0-26.28,36.05-43.2,70.62-49.49v-14.65c0-17.68-4.75-27.28-24.79-27.28-26.28,0-20.04,14.65-20.04,23.25,0,7.06-5.51,12.39-12.28,12.39s-12.51-5.3-12.51-12.39c0-19.95,25.29-31.31,46.82-31.31,24.3,0,44.31,8.09,44.31,34.87v57.85c0,9.59.76,18.68,8.52,18.68,7,0,10.27-4.56,13.54-11.36l5.51,3.03v-.07Zm-49.06-10.09v-34.87c-24.04,5.06-46.59,14.15-46.59,35.37,0,12.12,6.51,16.92,18.03,16.92,13.27,0,23.28-7.06,28.56-17.42Z"/>
      <path class="cls-1" d="m1164.61,190.36c0,7.33-5.75,13.89-13.01,13.89-15.02,0-9.28-14.15-23.04-14.15-6.27,0-12.78,5.06-19.02,13.39v72.24c0,9.09,7.76,11.62,23.04,13.12v6.83h-62.1v-6.83c11.75-1.53,17.53-4.03,17.53-13.12v-70.47c0-11.36-6.01-13.12-18.29-14.15v-5.79l37.57-13.12h2.25v22.98c11.75-16.42,22.29-22.98,34.3-22.98s20.77,8.09,20.77,18.18Z"/>
    </g>
  </g>
  <g>
    <path class="cls-1" d="m1330.47,152.68h-6.82c-1.26-17.17-8.34-24.5-25.51-24.5h-38.14v72.99h27.28c12.38,0,21.21-2.78,22.48-22.73h6.82v55.06h-6.82c-1.77-20.71-10.1-22.73-22.48-22.73h-27.28v60.87c0,11.87,9.35,15.66,27.78,17.17v6.82h-74.76v-6.82c15.15-1.51,22.73-5.3,22.73-17.17v-131.08c0-10.36-7.58-13.39-22.73-14.9v-6.82h117.45v33.84Z"/>
    <path class="cls-1" d="m1398.39,288.81v6.82h-57.08v-6.82c11.87-1.51,17.68-4.04,17.68-13.13v-70.47c0-11.37-6.06-13.13-18.44-14.14v-5.81l37.89-13.13h2.27v103.55c0,9.09,5.81,11.62,17.68,13.13Zm-47.48-163.67c0-8.84,7.32-16.42,16.42-16.42s16.42,7.58,16.42,16.42c0,9.34-7.32,16.67-16.42,16.67s-16.42-7.33-16.42-16.67Z"/>
    <path class="cls-1" d="m1541.83,288.81v6.82h-57.08v-6.82c11.87-1.51,17.68-4.04,17.68-13.13v-60.36c0-18.44-7.58-27.28-23.49-27.28-9.6,0-19.2,2.53-28.03,11.11v76.53c0,9.09,5.81,11.62,17.68,13.13v6.82h-57.08v-6.82c11.87-1.51,17.68-4.04,17.68-13.13v-70.47c0-11.37-6.06-13.13-18.44-14.14v-5.81l37.89-13.13h2.27v20.96c9.34-12.38,23.24-20.96,38.9-20.96,20.96,0,34.35,13.13,34.35,34.6v68.95c0,9.09,5.81,11.62,17.68,13.13Z"/>
    <path class="cls-1" d="m1675.59,275.18c-4.55,12.63-11.87,22.98-27.78,22.98-12.88,0-20.96-10.1-21.72-24.25-7.07,14.9-21.47,24.25-40.16,24.25-17.68,0-31.07-8.59-31.07-26.52,0-26.27,36.37-43.19,71.23-49.5v-14.65c0-17.68-4.8-27.28-25-27.28-26.52,0-20.21,14.65-20.21,23.24,0,7.07-5.56,12.38-12.38,12.38s-12.63-5.3-12.63-12.38c0-19.95,25.51-31.32,47.23-31.32,24.5,0,44.7,8.08,44.7,34.85v57.84c0,9.6.76,18.69,8.59,18.69,7.07,0,10.36-4.55,13.64-11.37l5.56,3.03Zm-49.5-10.1v-34.86c-24.25,5.05-46.98,14.14-46.98,35.36,0,12.12,6.57,16.92,18.19,16.92,13.39,0,23.49-7.07,28.79-17.43Z"/>
    <path class="cls-1" d="m1813.82,288.81v6.82h-57.08v-6.82c11.87-1.51,17.68-4.04,17.68-13.13v-60.36c0-18.44-7.58-27.28-23.49-27.28-9.6,0-19.2,2.53-28.04,11.11v76.53c0,9.09,5.81,11.62,17.68,13.13v6.82h-57.08v-6.82c11.87-1.51,17.68-4.04,17.68-13.13v-70.47c0-11.37-6.06-13.13-18.44-14.14v-5.81l37.89-13.13h2.27v20.96c9.35-12.38,23.24-20.96,38.9-20.96,20.96,0,34.35,13.13,34.35,34.6v68.95c0,9.09,5.81,11.62,17.68,13.13Z"/>
    <path class="cls-1" d="m1822.54,235.52c0-38.39,24.75-63.39,62.13-63.39,19.95,0,42.18,9.34,42.18,27.02,0,7.33-5.3,12.38-12.63,12.38-22.73,0-7.83-30.06-38.9-30.06-22.23,0-32.08,23.49-32.08,46.47,0,28.79,13.64,49.76,42.18,49.76,17.93,0,29.8-8.84,37.63-19.7l5.3,2.78c-7.33,22.48-25.76,37.38-51.02,37.38-33.59,0-54.81-26.77-54.81-62.64Z"/>
    <path class="cls-1" d="m2042.75,258l5.3,2.78c-7.58,22.48-26.77,37.38-52.79,37.38-33.59,0-54.81-26.27-54.81-61.37,0-36.88,22.23-64.66,55.82-64.66s51.78,24.5,51.78,57.59h-86.88c.25,32.58,16.16,47.99,41.93,47.99,18.94,0,31.32-8.84,39.65-19.7Zm-81.33-36.37h43.44c11.37,0,17.43-4.04,17.43-14.4,0-14.14-10.1-27.02-28.29-27.02-20.46,0-30.81,18.44-32.58,41.42Z"/>
  </g>
</svg>