<?xml version="1.0" encoding="UTF-8"?>
<svg id="Layer_1" data-name="Layer 1" xmlns="http://www.w3.org/2000/svg" viewBox="0 0 1937.8 425.77">
  <defs>
    <style>
      .cls-1, .cls-2 {
        stroke-width: 0px;
      }

      .cls-2 {
        fill: #3d3fff;
      }
    </style>
  </defs>
  <g>
    <g>
      <path class="cls-2" d="m123.94,104.73l88.95-51.35c-3.42-5.92-6.84-11.84-10.26-17.77l-99.2,57.28v154.92s20.51,11.85,20.51,11.85V104.73Z"/>
      <polygon class="cls-2" points="285.66 285.86 165.68 355.23 93.12 313.29 82.86 331.06 165.68 378.92 285.63 309.66 285.66 285.86"/>
      <polygon class="cls-2" points="305.82 166.17 305.82 321.65 216.82 373.03 227.04 390.82 326.34 333.49 326.32 177.97 305.82 166.17"/>
      <polygon class="cls-2" points="264.07 94.85 144.38 163.89 144.38 272.12 164.89 283.86 164.89 176.13 264.07 118.54 346.85 166.17 346.85 285.86 367.56 285.86 367.56 154.78 264.07 94.85"/>
      <polygon class="cls-2" points="144.38 140.25 264.09 71.13 336.81 113.2 347.04 95.42 264.09 47.45 144.38 116.62 144.38 140.25"/>
      <path class="cls-2" d="m285.31,262.15v-107.72l-20.51-11.84v107.72s-99.35,57.36-99.35,57.36l-82.59-47.88-.06-119.53h-20.46v131.37l103.1,59.72,119.86-69.21Z"/>
      <polygon class="cls-2" points="226.05 249.07 244.26 238.45 244.39 153.29 226.05 163.88 226.05 213.31 203.74 176.92 185.4 187.51 185.4 272.48 203.74 261.91 203.74 211.82 226.05 249.07"/>
    </g>
    <g>
      <path class="cls-1" d="m555.83,118.89h59.33v6.83c-16.28,1.27-25.03,8.32-25.03,27.54v144.97h-4.52l-110.4-155.36v118.46c0,19.18,8.52,26.28,25.03,27.54v6.83h-59.33v-6.83c16.51-1.27,25.02-8.32,25.02-27.54v-113.16c0-15.65-8.25-21.21-24.79-22.48v-6.83h48.34l91.39,129.55v-95.18c0-19.18-8.25-26.28-25.03-27.54v-6.83.03Z"/>
      <path class="cls-1" d="m716.59,258.03l5.25,2.76c-7.53,22.48-26.54,37.37-52.33,37.37-33.31,0-54.34-26.28-54.34-61.38,0-36.87,22.02-64.64,55.33-64.64s51.34,24.51,51.34,57.58h-86.14c.26,32.57,16.01,47.99,41.57,47.99,18.79,0,31.03-8.83,39.32-19.72v.03Zm-80.62-36.37h43.05c11.26,0,17.27-4.03,17.27-14.39,0-14.15-10-27.01-28.03-27.01-20.27,0-30.54,18.45-32.29,41.43v-.03Z"/>
      <path class="cls-1" d="m738.12,235.55c0-38.4,24.53-63.41,61.61-63.41,19.78,0,41.8,9.36,41.8,27.01,0,7.33-5.25,12.39-12.51,12.39-22.55,0-7.76-30.04-38.56-30.04-22.02,0-31.79,23.48-31.79,46.46,0,28.81,13.5,49.76,41.83,49.76,17.76,0,29.55-8.83,37.31-19.72l5.25,2.76c-7.26,22.48-25.55,37.37-50.58,37.37-33.31,0-54.34-26.78-54.34-62.64v.07Z"/>
      <path class="cls-1" d="m929.8,277.24c-4.26,7.06-12.51,19.72-31.3,19.72-17.27,0-26.28-10.59-26.28-32.57v-78.03h-17.53v-7.06c16.01-5.3,26.55-18.95,31.04-37.63h8.02v33.07h30.8v11.62h-30.8v75c0,13.62,6.01,18.95,16.01,18.95,6.5,0,12.78-3.8,15.52-7.06l4.52,4.03v-.03Z"/>
      <path class="cls-1" d="m1062.94,275.21c-4.52,12.62-11.75,22.98-27.54,22.98-12.78,0-20.77-10.09-21.53-24.24-7,14.89-21.3,24.24-39.82,24.24-17.53,0-30.8-8.59-30.8-26.51,0-26.28,36.05-43.2,70.62-49.49v-14.65c0-17.68-4.75-27.28-24.79-27.28-26.28,0-20.04,14.65-20.04,23.25,0,7.06-5.51,12.39-12.28,12.39s-12.51-5.3-12.51-12.39c0-19.95,25.29-31.31,46.82-31.31,24.3,0,44.31,8.09,44.31,34.87v57.85c0,9.59.76,18.68,8.52,18.68,7,0,10.27-4.56,13.54-11.36l5.51,3.03v-.07Zm-49.06-10.09v-34.87c-24.04,5.06-46.59,14.15-46.59,35.37,0,12.12,6.51,16.92,18.03,16.92,13.27,0,23.28-7.06,28.56-17.42Z"/>
      <path class="cls-1" d="m1164.61,190.36c0,7.33-5.75,13.89-13.01,13.89-15.02,0-9.28-14.15-23.04-14.15-6.27,0-12.78,5.06-19.02,13.39v72.24c0,9.09,7.76,11.62,23.04,13.12v6.83h-62.1v-6.83c11.75-1.53,17.53-4.03,17.53-13.12v-70.47c0-11.36-6.01-13.12-18.29-14.15v-5.79l37.57-13.12h2.25v22.98c11.75-16.42,22.29-22.98,34.3-22.98s20.77,8.09,20.77,18.18Z"/>
    </g>
  </g>
  <g>
    <path class="cls-1" d="m1202.17,118.76h138.19v44.21h-6.82c-1.26-23.75-11.87-34.86-37.64-34.86h-12.38v143.49c0,11.87,9.35,15.66,27.79,17.18v6.82h-79.83v-6.82c18.44-1.52,27.79-5.3,27.79-17.18v-143.49h-12.63c-25.52,0-36.38,11.12-37.64,34.86h-6.82v-44.21Z"/>
    <path class="cls-1" d="m1331.24,235.22c0-33.35,27.28-63.16,62.4-63.16s62.65,29.81,62.65,63.16-27.28,62.9-62.65,62.9-62.4-29.81-62.4-62.9Zm98.27,0c0-27.79-7.58-54.06-35.87-54.06s-35.87,26.27-35.87,54.06,7.83,53.81,35.87,53.81,35.87-26.27,35.87-53.81Z"/>
    <path class="cls-1" d="m1578.49,273.12c9.6,9.6,16.17,15.16,27.28,15.66v6.82h-61.89v-6.82c11.62-.5,15.41-5.3,8.34-12.13l-47.24-46.23v45.22c0,9.09,5.81,11.62,17.68,13.14v6.82h-57.09v-6.82c11.87-1.52,17.68-4.04,17.68-13.14v-136.42c0-11.37-6.06-13.14-18.44-14.15v-5.81l37.89-13.14h2.27v118.48l36.88-28.55c12.63-9.6,7.33-13.14-6.57-14.4v-7.07h59.37v7.07c-15.16,1.26-25.26,5.81-41.18,17.94l-28.04,21.47,53.05,52.04Z"/>
    <path class="cls-1" d="m1709.91,257.96l5.3,2.78c-7.58,22.48-26.78,37.39-52.8,37.39-33.6,0-54.82-26.27-54.82-61.39,0-36.88,22.23-64.67,55.83-64.67s51.79,24.5,51.79,57.6h-86.9c.25,32.59,16.17,48,41.94,48,18.95,0,31.33-8.84,39.66-19.7Zm-81.35-36.38h43.45c11.37,0,17.43-4.04,17.43-14.4,0-14.15-10.11-27.03-28.29-27.03-20.46,0-30.82,18.44-32.59,41.43Z"/>
    <path class="cls-1" d="m1856.94,288.78v6.82h-57.09v-6.82c11.87-1.52,17.68-4.04,17.68-13.14v-60.38c0-18.44-7.58-27.28-23.5-27.28-9.6,0-19.2,2.53-28.04,11.11v76.55c0,9.09,5.81,11.62,17.68,13.14v6.82h-57.09v-6.82c11.87-1.52,17.68-4.04,17.68-13.14v-70.48c0-11.37-6.06-13.14-18.44-14.15v-5.81l37.89-13.14h2.27v20.97c9.35-12.38,23.24-20.97,38.91-20.97,20.97,0,34.36,13.14,34.36,34.61v68.97c0,9.09,5.81,11.62,17.68,13.14Z"/>
  </g>
</svg>