<?xml version="1.0" encoding="UTF-8"?>
<svg id="Layer_1" data-name="Layer 1" xmlns="http://www.w3.org/2000/svg" viewBox="0 0 425.77 425.77">
  <defs>
    <style>
      .cls-1 {
        fill: #3d3fff;
      }

      .cls-1, .cls-2 {
        stroke-width: 0px;
      }

      .cls-2 {
        fill: #fff;
      }
    </style>
  </defs>
  <circle class="cls-1" cx="212.89" cy="212.89" r="212.89"/>
  <g>
    <path class="cls-2" d="m121.94,104.73l88.95-51.35c-3.42-5.92-6.84-11.84-10.26-17.77l-99.2,57.28v154.92s20.51,11.85,20.51,11.85V104.73Z"/>
    <polygon class="cls-2" points="283.66 285.86 163.68 355.23 91.12 313.29 80.86 331.06 163.68 378.92 283.63 309.66 283.66 285.86"/>
    <polygon class="cls-2" points="303.82 166.17 303.82 321.65 214.82 373.03 225.04 390.82 324.34 333.49 324.32 177.97 303.82 166.17"/>
    <polygon class="cls-2" points="262.07 94.85 142.38 163.89 142.38 272.12 162.89 283.86 162.89 176.13 262.07 118.54 344.85 166.17 344.85 285.86 365.56 285.86 365.56 154.78 262.07 94.85"/>
    <polygon class="cls-2" points="142.38 140.25 262.09 71.13 334.81 113.2 345.04 95.42 262.09 47.45 142.38 116.62 142.38 140.25"/>
    <path class="cls-2" d="m283.31,262.15v-107.72l-20.51-11.84v107.72s-99.35,57.36-99.35,57.36l-82.59-47.88-.06-119.53h-20.46v131.37l103.1,59.72,119.86-69.21Z"/>
    <polygon class="cls-2" points="224.05 249.07 242.26 238.45 242.39 153.29 224.05 163.88 224.05 213.31 201.74 176.92 183.4 187.51 183.4 272.48 201.74 261.91 201.74 211.82 224.05 249.07"/>
  </g>
</svg>