<?xml version="1.0" encoding="UTF-8"?>
<svg id="Layer_1" data-name="Layer 1" xmlns="http://www.w3.org/2000/svg" viewBox="0 0 425.77 425.77">
  <defs>
    <style>
      .cls-1 {
        fill: #3d3fff;
        stroke-width: 0px;
      }
    </style>
  </defs>
  <path class="cls-1" d="m123.94,104.73l88.95-51.35c-3.42-5.92-6.84-11.84-10.26-17.77l-99.2,57.28v154.92s20.51,11.85,20.51,11.85V104.73Z"/>
  <polygon class="cls-1" points="285.66 285.86 165.68 355.23 93.12 313.29 82.86 331.06 165.68 378.92 285.63 309.66 285.66 285.86"/>
  <polygon class="cls-1" points="305.82 166.17 305.82 321.65 216.82 373.03 227.04 390.82 326.34 333.49 326.32 177.97 305.82 166.17"/>
  <polygon class="cls-1" points="264.07 94.85 144.38 163.89 144.38 272.12 164.89 283.86 164.89 176.13 264.07 118.54 346.85 166.17 346.85 285.86 367.56 285.86 367.56 154.78 264.07 94.85"/>
  <polygon class="cls-1" points="144.38 140.25 264.09 71.13 336.81 113.2 347.04 95.42 264.09 47.45 144.38 116.62 144.38 140.25"/>
  <path class="cls-1" d="m285.31,262.15v-107.72l-20.51-11.84v107.72s-99.35,57.36-99.35,57.36l-82.59-47.88-.06-119.53h-20.46v131.37l103.1,59.72,119.86-69.21Z"/>
  <polygon class="cls-1" points="226.05 249.07 244.26 238.45 244.39 153.29 226.05 163.88 226.05 213.31 203.74 176.92 185.4 187.51 185.4 272.48 203.74 261.91 203.74 211.82 226.05 249.07"/>
</svg>